<svg width="240" height="108" viewBox="0 0 240 108" fill="none" xmlns="http://www.w3.org/2000/svg">
<mask id="mask0_31_5756" style="mask-type:luminance" maskUnits="userSpaceOnUse" x="0" y="0" width="240" height="108">
<path d="M0 0.296875H240V108H0V0.296875Z" fill="white"/>
</mask>
<g mask="url(#mask0_31_5756)">
<path d="M188.958 106.646L238.12 57.4897C239.88 55.7292 239.88 52.9793 238.12 51.2188L188.958 2.05737C187.198 0.296956 184.448 0.296956 182.688 2.05737C180.927 3.81779 180.927 6.56779 182.688 8.32821L224.37 50.0105H4.52091C2.10425 50.0105 0.119873 51.9897 0.119873 54.4063C0.119873 56.8282 2.10425 58.8074 4.52091 58.8074H224.37L182.688 100.38C181.807 101.261 181.37 102.359 181.37 103.458C181.37 104.557 181.807 105.656 182.688 106.537C184.448 108.297 187.198 108.297 188.958 106.646Z" fill="#E7E0FA"/>
</g>
</svg>
