<svg width="128" height="364" viewBox="0 0 128 364" fill="none" xmlns="http://www.w3.org/2000/svg">
<path d="M108.948 363.484V344.438H127.995V363.484H108.948Z" fill="#F72585"/>
<path d="M108.948 306.203V287.156H127.995V306.203H108.948Z" fill="#F72585"/>
<path d="M108.948 248.911V229.865H127.995V248.911H108.948Z" fill="#F72585"/>
<path d="M108.948 191.63V172.583H127.995V191.63H108.948Z" fill="#F72585"/>
<path d="M108.948 134.349V115.302H127.995V134.349H108.948Z" fill="#F72585"/>
<path d="M108.948 77.0521V58.0052H127.995V77.0521H108.948Z" fill="#F72585"/>
<mask id="mask0_31_5765" style="mask-type:luminance" maskUnits="userSpaceOnUse" x="108" y="0" width="20" height="21">
<path d="M108 0.213623H128V20.0001H108V0.213623Z" fill="white"/>
</mask>
<g mask="url(#mask0_31_5765)">
<path d="M108.948 19.771V0.724121H127.995V19.771H108.948Z" fill="#F72585"/>
</g>
<path d="M54.5105 363.484V344.438H73.5574V363.484H54.5105Z" fill="#F72585"/>
<path d="M54.5105 306.203V287.156H73.5574V306.203H54.5105Z" fill="#F72585"/>
<path d="M54.5105 248.911V229.865H73.5574V248.911H54.5105Z" fill="#F72585"/>
<path d="M54.5105 191.63V172.583H73.5574V191.63H54.5105Z" fill="#F72585"/>
<path d="M54.5105 134.349V115.302H73.5574V134.349H54.5105Z" fill="#F72585"/>
<path d="M54.5105 77.0521V58.0052H73.5574V77.0521H54.5105Z" fill="#F72585"/>
<mask id="mask1_31_5765" style="mask-type:luminance" maskUnits="userSpaceOnUse" x="53" y="0" width="22" height="21">
<path d="M53.3334 0.213623H74.6667V20.0001H53.3334V0.213623Z" fill="white"/>
</mask>
<g mask="url(#mask1_31_5765)">
<path d="M54.5105 19.771V0.724121H73.5574V19.771H54.5105Z" fill="#F72585"/>
</g>
<mask id="mask2_31_5765" style="mask-type:luminance" maskUnits="userSpaceOnUse" x="0" y="344" width="21" height="20">
<path d="M0.072998 344H20.0001V364H0.072998V344Z" fill="white"/>
</mask>
<g mask="url(#mask2_31_5765)">
<path d="M0.072998 363.484V344.438H19.1199V363.484H0.072998Z" fill="#F72585"/>
</g>
<mask id="mask3_31_5765" style="mask-type:luminance" maskUnits="userSpaceOnUse" x="0" y="286" width="21" height="21">
<path d="M0.072998 286.667H20.0001V306.667H0.072998V286.667Z" fill="white"/>
</mask>
<g mask="url(#mask3_31_5765)">
<path d="M0.072998 306.203V287.156H19.1199V306.203H0.072998Z" fill="#F72585"/>
</g>
<mask id="mask4_31_5765" style="mask-type:luminance" maskUnits="userSpaceOnUse" x="0" y="229" width="21" height="21">
<path d="M0.072998 229.333H20.0001V249.333H0.072998V229.333Z" fill="white"/>
</mask>
<g mask="url(#mask4_31_5765)">
<path d="M0.072998 248.911V229.865H19.1199V248.911H0.072998Z" fill="#F72585"/>
</g>
<mask id="mask5_31_5765" style="mask-type:luminance" maskUnits="userSpaceOnUse" x="0" y="172" width="21" height="20">
<path d="M0.072998 172H20.0001V192H0.072998V172Z" fill="white"/>
</mask>
<g mask="url(#mask5_31_5765)">
<path d="M0.072998 191.63V172.583H19.1199V191.63H0.072998Z" fill="#F72585"/>
</g>
<mask id="mask6_31_5765" style="mask-type:luminance" maskUnits="userSpaceOnUse" x="0" y="114" width="21" height="21">
<path d="M0.072998 114.667H20.0001V134.667H0.072998V114.667Z" fill="white"/>
</mask>
<g mask="url(#mask6_31_5765)">
<path d="M0.072998 134.349V115.302H19.1199V134.349H0.072998Z" fill="#F72585"/>
</g>
<mask id="mask7_31_5765" style="mask-type:luminance" maskUnits="userSpaceOnUse" x="0" y="57" width="21" height="21">
<path d="M0.072998 57.3334H20.0001V77.3334H0.072998V57.3334Z" fill="white"/>
</mask>
<g mask="url(#mask7_31_5765)">
<path d="M0.072998 77.0521V58.0052H19.1199V77.0521H0.072998Z" fill="#F72585"/>
</g>
<mask id="mask8_31_5765" style="mask-type:luminance" maskUnits="userSpaceOnUse" x="0" y="0" width="21" height="21">
<path d="M0.072998 0.213623H20.0001V20.0001H0.072998V0.213623Z" fill="white"/>
</mask>
<g mask="url(#mask8_31_5765)">
<path d="M0.072998 19.771V0.724121H19.1199V19.771H0.072998Z" fill="#F72585"/>
</g>
</svg>
